<svg id="visual" viewBox="0 0 900 600" width="900" height="600" xmlns="http://www.w3.org/2000/svg" xmlns:xlink="http://www.w3.org/1999/xlink" version="1.1"><rect x="0" y="0" width="900" height="600" fill="#FFFFFF"></rect><g fill="#000000"><circle r="75" cx="669" cy="74"></circle><circle r="33" cx="733" cy="537"></circle><circle r="37" cx="336" cy="248"></circle><circle r="33" cx="42" cy="233"></circle><circle r="51" cx="458" cy="64"></circle><circle r="61" cx="112" cy="91"></circle><circle r="35" cx="582" cy="305"></circle><circle r="42" cx="385" cy="499"></circle><circle r="41" cx="154" cy="393"></circle><circle r="43" cx="876" cy="493"></circle><circle r="62" cx="229" cy="546"></circle><circle r="40" cx="527" cy="582"></circle><circle r="53" cx="857" cy="5"></circle><circle r="61" cx="794" cy="163"></circle><circle r="64" cx="891" cy="334"></circle><circle r="40" cx="70" cy="523"></circle><circle r="68" cx="279" cy="103"></circle><circle r="40" cx="734" cy="311"></circle><circle r="65" cx="608" cy="452"></circle></g></svg>