<svg id="visual" viewBox="0 0 600 900" width="600" height="900" xmlns="http://www.w3.org/2000/svg" xmlns:xlink="http://www.w3.org/1999/xlink" version="1.1"><rect x="0" y="0" width="600" height="900" fill="#FFFFFF"></rect><g fill="#000000"><circle r="14" cx="119" cy="554"></circle><circle r="1" cx="220" cy="254"></circle><circle r="4" cx="48" cy="97"></circle><circle r="2" cx="514" cy="352"></circle><circle r="12" cx="77" cy="56"></circle><circle r="11" cx="255" cy="713"></circle><circle r="12" cx="577" cy="540"></circle><circle r="5" cx="227" cy="799"></circle><circle r="5" cx="335" cy="181"></circle><circle r="5" cx="116" cy="436"></circle><circle r="6" cx="28" cy="816"></circle><circle r="6" cx="91" cy="722"></circle><circle r="8" cx="343" cy="452"></circle><circle r="7" cx="587" cy="286"></circle><circle r="8" cx="46" cy="848"></circle><circle r="9" cx="324" cy="101"></circle><circle r="7" cx="531" cy="505"></circle><circle r="12" cx="491" cy="257"></circle><circle r="1" cx="207" cy="230"></circle><circle r="9" cx="524" cy="777"></circle><circle r="7" cx="167" cy="726"></circle><circle r="3" cx="16" cy="397"></circle><circle r="3" cx="355" cy="521"></circle><circle r="6" cx="474" cy="752"></circle><circle r="12" cx="45" cy="316"></circle><circle r="1" cx="214" cy="696"></circle><circle r="1" cx="274" cy="526"></circle><circle r="10" cx="245" cy="352"></circle><circle r="2" cx="284" cy="734"></circle><circle r="2" cx="513" cy="126"></circle><circle r="12" cx="158" cy="605"></circle><circle r="11" cx="303" cy="501"></circle><circle r="12" cx="279" cy="447"></circle><circle r="11" cx="175" cy="437"></circle><circle r="10" cx="541" cy="730"></circle><circle r="8" cx="43" cy="515"></circle><circle r="8" cx="398" cy="96"></circle><circle r="4" cx="246" cy="481"></circle><circle r="6" cx="580" cy="501"></circle><circle r="5" cx="534" cy="444"></circle><circle r="11" cx="455" cy="267"></circle><circle r="1" cx="353" cy="122"></circle><circle r="6" cx="59" cy="637"></circle><circle r="12" cx="383" cy="791"></circle><circle r="5" cx="27" cy="206"></circle><circle r="5" cx="586" cy="470"></circle><circle r="3" cx="186" cy="782"></circle><circle r="6" cx="437" cy="816"></circle><circle r="7" cx="321" cy="648"></circle><circle r="10" cx="89" cy="191"></circle><circle r="12" cx="442" cy="438"></circle><circle r="9" cx="183" cy="510"></circle><circle r="11" cx="418" cy="407"></circle><circle r="5" cx="373" cy="236"></circle><circle r="12" cx="500" cy="888"></circle><circle r="1" cx="83" cy="522"></circle><circle r="9" cx="346" cy="240"></circle><circle r="7" cx="189" cy="48"></circle><circle r="7" cx="381" cy="335"></circle><circle r="11" cx="174" cy="195"></circle><circle r="10" cx="186" cy="147"></circle><circle r="11" cx="588" cy="742"></circle><circle r="5" cx="312" cy="416"></circle><circle r="2" cx="580" cy="841"></circle><circle r="1" cx="586" cy="671"></circle><circle r="9" cx="566" cy="638"></circle><circle r="3" cx="145" cy="781"></circle><circle r="0" cx="1" cy="69"></circle><circle r="7" cx="48" cy="764"></circle><circle r="2" cx="412" cy="9"></circle><circle r="3" cx="560" cy="139"></circle><circle r="7" cx="95" cy="659"></circle><circle r="11" cx="306" cy="259"></circle><circle r="3" cx="115" cy="118"></circle><circle r="2" cx="596" cy="153"></circle><circle r="5" cx="225" cy="5"></circle><circle r="4" cx="511" cy="45"></circle><circle r="3" cx="196" cy="581"></circle><circle r="7" cx="401" cy="303"></circle><circle r="2" cx="476" cy="318"></circle><circle r="3" cx="351" cy="715"></circle><circle r="5" cx="161" cy="374"></circle><circle r="1" cx="252" cy="297"></circle><circle r="1" cx="106" cy="789"></circle><circle r="3" cx="417" cy="200"></circle><circle r="4" cx="521" cy="677"></circle><circle r="10" cx="26" cy="134"></circle><circle r="0" cx="232" cy="451"></circle><circle r="1" cx="570" cy="348"></circle><circle r="5" cx="134" cy="515"></circle><circle r="3" cx="76" cy="574"></circle><circle r="3" cx="76" cy="340"></circle><circle r="3" cx="538" cy="404"></circle><circle r="6" cx="561" cy="709"></circle><circle r="8" cx="341" cy="292"></circle><circle r="8" cx="557" cy="474"></circle><circle r="2" cx="137" cy="632"></circle><circle r="10" cx="191" cy="345"></circle><circle r="6" cx="237" cy="32"></circle><circle r="3" cx="249" cy="396"></circle><circle r="9" cx="213" cy="554"></circle><circle r="1" cx="360" cy="159"></circle><circle r="1" cx="388" cy="487"></circle><circle r="12" cx="490" cy="70"></circle><circle r="4" cx="595" cy="212"></circle><circle r="7" cx="286" cy="180"></circle><circle r="7" cx="62" cy="13"></circle><circle r="2" cx="57" cy="277"></circle><circle r="4" cx="435" cy="247"></circle><circle r="1" cx="222" cy="515"></circle><circle r="9" cx="61" cy="731"></circle><circle r="2" cx="597" cy="798"></circle><circle r="5" cx="392" cy="855"></circle><circle r="10" cx="12" cy="862"></circle><circle r="7" cx="321" cy="374"></circle><circle r="7" cx="535" cy="806"></circle><circle r="11" cx="222" cy="834"></circle><circle r="7" cx="242" cy="551"></circle><circle r="8" cx="49" cy="149"></circle><circle r="0" cx="353" cy="86"></circle><circle r="11" cx="436" cy="686"></circle><circle r="9" cx="583" cy="98"></circle><circle r="7" cx="477" cy="465"></circle><circle r="0" cx="260" cy="85"></circle><circle r="6" cx="107" cy="869"></circle><circle r="3" cx="281" cy="845"></circle><circle r="4" cx="23" cy="586"></circle><circle r="4" cx="503" cy="327"></circle><circle r="8" cx="310" cy="869"></circle><circle r="5" cx="408" cy="578"></circle><circle r="1" cx="119" cy="183"></circle><circle r="6" cx="76" cy="309"></circle><circle r="0" cx="360" cy="829"></circle><circle r="9" cx="34" cy="690"></circle><circle r="12" cx="238" cy="648"></circle><circle r="1" cx="411" cy="451"></circle><circle r="9" cx="383" cy="69"></circle><circle r="5" cx="369" cy="671"></circle><circle r="6" cx="25" cy="556"></circle><circle r="3" cx="240" cy="593"></circle><circle r="4" cx="488" cy="144"></circle><circle r="1" cx="272" cy="687"></circle><circle r="12" cx="572" cy="180"></circle><circle r="2" cx="521" cy="705"></circle><circle r="0" cx="334" cy="754"></circle><circle r="2" cx="497" cy="585"></circle><circle r="9" cx="564" cy="65"></circle><circle r="2" cx="548" cy="363"></circle><circle r="4" cx="127" cy="489"></circle><circle r="3" cx="4" cy="705"></circle><circle r="12" cx="328" cy="849"></circle><circle r="5" cx="264" cy="569"></circle><circle r="8" cx="373" cy="421"></circle><circle r="8" cx="166" cy="5"></circle><circle r="2" cx="307" cy="52"></circle><circle r="2" cx="168" cy="834"></circle><circle r="3" cx="432" cy="488"></circle><circle r="1" cx="219" cy="193"></circle><circle r="2" cx="93" cy="464"></circle><circle r="6" cx="437" cy="784"></circle><circle r="10" cx="386" cy="648"></circle><circle r="6" cx="117" cy="271"></circle><circle r="9" cx="266" cy="784"></circle><circle r="4" cx="118" cy="307"></circle><circle r="4" cx="477" cy="104"></circle><circle r="5" cx="323" cy="705"></circle><circle r="4" cx="323" cy="480"></circle><circle r="0" cx="532" cy="302"></circle><circle r="9" cx="13" cy="423"></circle><circle r="6" cx="145" cy="811"></circle><circle r="12" cx="346" cy="365"></circle><circle r="0" cx="168" cy="229"></circle><circle r="8" cx="549" cy="662"></circle><circle r="10" cx="555" cy="218"></circle><circle r="11" cx="249" cy="212"></circle><circle r="3" cx="382" cy="619"></circle><circle r="3" cx="305" cy="226"></circle><circle r="4" cx="598" cy="638"></circle><circle r="1" cx="180" cy="81"></circle><circle r="4" cx="434" cy="621"></circle><circle r="8" cx="515" cy="862"></circle><circle r="10" cx="56" cy="480"></circle><circle r="7" cx="411" cy="786"></circle><circle r="11" cx="321" cy="616"></circle><circle r="0" cx="188" cy="273"></circle><circle r="9" cx="539" cy="43"></circle><circle r="9" cx="310" cy="161"></circle><circle r="2" cx="350" cy="647"></circle><circle r="1" cx="184" cy="659"></circle><circle r="11" cx="162" cy="889"></circle><circle r="1" cx="399" cy="360"></circle><circle r="0" cx="60" cy="543"></circle><circle r="1" cx="548" cy="165"></circle><circle r="11" cx="440" cy="555"></circle><circle r="4" cx="278" cy="477"></circle><circle r="5" cx="340" cy="37"></circle><circle r="11" cx="46" cy="64"></circle><circle r="2" cx="427" cy="381"></circle><circle r="4" cx="60" cy="192"></circle><circle r="6" cx="148" cy="25"></circle><circle r="9" cx="500" cy="289"></circle><circle r="1" cx="420" cy="69"></circle><circle r="11" cx="243" cy="761"></circle><circle r="9" cx="525" cy="272"></circle><circle r="4" cx="117" cy="44"></circle><circle r="8" cx="44" cy="230"></circle><circle r="9" cx="146" cy="243"></circle><circle r="8" cx="579" cy="772"></circle><circle r="10" cx="494" cy="13"></circle><circle r="5" cx="313" cy="781"></circle><circle r="5" cx="501" cy="176"></circle><circle r="1" cx="502" cy="820"></circle><circle r="12" cx="450" cy="509"></circle><circle r="4" cx="25" cy="449"></circle><circle r="5" cx="410" cy="151"></circle><circle r="2" cx="79" cy="89"></circle><circle r="12" cx="426" cy="722"></circle><circle r="7" cx="336" cy="142"></circle><circle r="9" cx="59" cy="813"></circle><circle r="4" cx="554" cy="567"></circle><circle r="6" cx="435" cy="844"></circle><circle r="12" cx="375" cy="2"></circle><circle r="1" cx="280" cy="614"></circle><circle r="8" cx="569" cy="240"></circle><circle r="3" cx="230" cy="73"></circle><circle r="12" cx="203" cy="752"></circle><circle r="10" cx="472" cy="564"></circle><circle r="12" cx="380" cy="892"></circle><circle r="2" cx="19" cy="34"></circle><circle r="11" cx="467" cy="724"></circle><circle r="3" cx="14" cy="339"></circle><circle r="8" cx="431" cy="40"></circle><circle r="3" cx="456" cy="876"></circle><circle r="11" cx="66" cy="248"></circle><circle r="0" cx="418" cy="342"></circle><circle r="10" cx="273" cy="412"></circle><circle r="2" cx="297" cy="292"></circle><circle r="1" cx="466" cy="360"></circle><circle r="9" cx="217" cy="889"></circle><circle r="5" cx="98" cy="147"></circle><circle r="9" cx="16" cy="280"></circle><circle r="9" cx="292" cy="655"></circle><circle r="6" cx="566" cy="307"></circle><circle r="1" cx="491" cy="544"></circle><circle r="7" cx="277" cy="152"></circle><circle r="6" cx="223" cy="102"></circle><circle r="3" cx="213" cy="404"></circle><circle r="6" cx="415" cy="756"></circle><circle r="3" cx="71" cy="410"></circle><circle r="5" cx="226" cy="376"></circle><circle r="6" cx="119" cy="16"></circle><circle r="8" cx="517" cy="218"></circle><circle r="3" cx="437" cy="589"></circle><circle r="7" cx="341" cy="889"></circle><circle r="7" cx="247" cy="425"></circle><circle r="5" cx="214" cy="631"></circle><circle r="7" cx="56" cy="381"></circle><circle r="3" cx="537" cy="634"></circle><circle r="8" cx="238" cy="275"></circle><circle r="6" cx="240" cy="145"></circle><circle r="1" cx="498" cy="740"></circle><circle r="1" cx="295" cy="703"></circle><circle r="7" cx="311" cy="559"></circle><circle r="10" cx="398" cy="248"></circle><circle r="11" cx="271" cy="382"></circle><circle r="12" cx="446" cy="647"></circle><circle r="4" cx="288" cy="588"></circle><circle r="1" cx="391" cy="740"></circle><circle r="4" cx="227" cy="315"></circle><circle r="12" cx="487" cy="428"></circle><circle r="10" cx="130" cy="362"></circle><circle r="2" cx="325" cy="330"></circle><circle r="4" cx="75" cy="775"></circle><circle r="3" cx="297" cy="13"></circle><circle r="2" cx="525" cy="545"></circle><circle r="4" cx="518" cy="385"></circle><circle r="7" cx="444" cy="319"></circle><circle r="8" cx="461" cy="170"></circle><circle r="3" cx="407" cy="505"></circle><circle r="2" cx="248" cy="247"></circle><circle r="10" cx="191" cy="469"></circle><circle r="1" cx="7" cy="152"></circle><circle r="0" cx="144" cy="89"></circle><circle r="0" cx="509" cy="641"></circle><circle r="0" cx="156" cy="341"></circle><circle r="11" cx="259" cy="123"></circle><circle r="11" cx="465" cy="202"></circle><circle r="6" cx="550" cy="7"></circle><circle r="11" cx="120" cy="746"></circle><circle r="11" cx="416" cy="868"></circle><circle r="2" cx="397" cy="549"></circle><circle r="10" cx="260" cy="893"></circle><circle r="2" cx="581" cy="22"></circle><circle r="7" cx="280" cy="104"></circle><circle r="0" cx="423" cy="121"></circle><circle r="6" cx="498" cy="512"></circle><circle r="1" cx="1" cy="229"></circle><circle r="0" cx="94" cy="494"></circle><circle r="11" cx="25" cy="250"></circle><circle r="0" cx="344" cy="782"></circle><circle r="5" cx="147" cy="420"></circle><circle r="4" cx="115" cy="410"></circle><circle r="10" cx="581" cy="411"></circle><circle r="10" cx="119" cy="842"></circle><circle r="6" cx="306" cy="446"></circle><circle r="8" cx="53" cy="895"></circle><circle r="5" cx="292" cy="355"></circle><circle r="12" cx="370" cy="377"></circle><circle r="0" cx="587" cy="573"></circle><circle r="9" cx="528" cy="183"></circle><circle r="12" cx="158" cy="266"></circle><circle r="2" cx="87" cy="808"></circle><circle r="4" cx="554" cy="835"></circle><circle r="6" cx="486" cy="799"></circle><circle r="11" cx="80" cy="685"></circle><circle r="5" cx="445" cy="4"></circle><circle r="6" cx="21" cy="4"></circle><circle r="10" cx="349" cy="267"></circle><circle r="6" cx="215" cy="154"></circle><circle r="7" cx="460" cy="82"></circle><circle r="2" cx="50" cy="600"></circle><circle r="6" cx="477" cy="840"></circle><circle r="8" cx="204" cy="122"></circle><circle r="8" cx="348" cy="559"></circle><circle r="1" cx="567" cy="800"></circle><circle r="5" cx="290" cy="898"></circle><circle r="8" cx="15" cy="306"></circle><circle r="8" cx="270" cy="333"></circle><circle r="0" cx="445" cy="411"></circle><circle r="2" cx="125" cy="894"></circle><circle r="10" cx="99" cy="377"></circle><circle r="4" cx="252" cy="867"></circle><circle r="0" cx="416" cy="270"></circle><circle r="0" cx="14" cy="366"></circle><circle r="7" cx="462" cy="241"></circle><circle r="4" cx="19" cy="749"></circle><circle r="11" cx="18" cy="92"></circle><circle r="0" cx="186" cy="388"></circle><circle r="12" cx="358" cy="213"></circle><circle r="8" cx="10" cy="659"></circle><circle r="7" cx="545" cy="867"></circle><circle r="0" cx="252" cy="670"></circle><circle r="1" cx="337" cy="587"></circle><circle r="11" cx="517" cy="76"></circle><circle r="5" cx="157" cy="299"></circle><circle r="7" cx="404" cy="40"></circle><circle r="10" cx="198" cy="314"></circle><circle r="11" cx="587" cy="323"></circle><circle r="1" cx="394" cy="128"></circle><circle r="10" cx="338" cy="406"></circle><circle r="7" cx="195" cy="847"></circle><circle r="0" cx="461" cy="26"></circle><circle r="11" cx="424" cy="529"></circle><circle r="4" cx="488" cy="386"></circle><circle r="5" cx="359" cy="866"></circle><circle r="9" cx="116" cy="679"></circle><circle r="5" cx="329" cy="67"></circle><circle r="0" cx="319" cy="531"></circle><circle r="3" cx="350" cy="478"></circle><circle r="3" cx="153" cy="52"></circle><circle r="9" cx="99" cy="632"></circle><circle r="6" cx="392" cy="398"></circle><circle r="11" cx="365" cy="590"></circle><circle r="4" cx="594" cy="865"></circle><circle r="11" cx="488" cy="690"></circle><circle r="8" cx="595" cy="895"></circle><circle r="12" cx="131" cy="709"></circle><circle r="6" cx="106" cy="213"></circle><circle r="1" cx="261" cy="3"></circle><circle r="6" cx="152" cy="567"></circle><circle r="5" cx="364" cy="311"></circle><circle r="3" cx="9" cy="183"></circle><circle r="9" cx="106" cy="240"></circle><circle r="5" cx="294" cy="814"></circle><circle r="6" cx="418" cy="642"></circle><circle r="10" cx="507" cy="455"></circle><circle r="3" cx="303" cy="131"></circle><circle r="5" cx="156" cy="137"></circle><circle r="9" cx="271" cy="39"></circle><circle r="12" cx="4" cy="628"></circle><circle r="5" cx="599" cy="62"></circle><circle r="6" cx="176" cy="627"></circle><circle r="8" cx="380" cy="287"></circle><circle r="11" cx="252" cy="819"></circle><circle r="9" cx="42" cy="658"></circle><circle r="3" cx="240" cy="175"></circle><circle r="8" cx="119" cy="596"></circle><circle r="3" cx="10" cy="783"></circle><circle r="9" cx="221" cy="733"></circle><circle r="2" cx="90" cy="843"></circle><circle r="1" cx="395" cy="219"></circle><circle r="8" cx="194" cy="19"></circle><circle r="9" cx="140" cy="463"></circle><circle r="9" cx="181" cy="701"></circle><circle r="7" cx="450" cy="144"></circle><circle r="3" cx="121" cy="72"></circle><circle r="2" cx="12" cy="481"></circle><circle r="12" cx="2" cy="525"></circle><circle r="5" cx="109" cy="339"></circle><circle r="6" cx="279" cy="228"></circle><circle r="12" cx="405" cy="690"></circle><circle r="0" cx="326" cy="206"></circle><circle r="11" cx="486" cy="614"></circle><circle r="10" cx="484" cy="42"></circle><circle r="8" cx="73" cy="167"></circle><circle r="11" cx="89" cy="894"></circle><circle r="10" cx="146" cy="178"></circle><circle r="2" cx="376" cy="39"></circle><circle r="5" cx="540" cy="601"></circle><circle r="10" cx="324" cy="678"></circle><circle r="2" cx="595" cy="599"></circle><circle r="8" cx="371" cy="453"></circle><circle r="11" cx="137" cy="862"></circle><circle r="3" cx="52" cy="429"></circle><circle r="9" cx="164" cy="111"></circle><circle r="6" cx="462" cy="679"></circle><circle r="9" cx="299" cy="390"></circle><circle r="12" cx="547" cy="758"></circle><circle r="7" cx="187" cy="876"></circle><circle r="10" cx="518" cy="1"></circle><circle r="11" cx="332" cy="821"></circle><circle r="12" cx="470" cy="899"></circle><circle r="4" cx="94" cy="1"></circle><circle r="6" cx="208" cy="493"></circle><circle r="10" cx="273" cy="277"></circle><circle r="1" cx="599" cy="248"></circle><circle r="3" cx="486" cy="219"></circle><circle r="7" cx="580" cy="372"></circle><circle r="9" cx="565" cy="435"></circle><circle r="11" cx="546" cy="899"></circle><circle r="2" cx="553" cy="279"></circle><circle r="12" cx="88" cy="272"></circle><circle r="2" cx="293" cy="79"></circle><circle r="11" cx="153" cy="677"></circle><circle r="10" cx="83" cy="605"></circle><circle r="9" cx="591" cy="698"></circle><circle r="8" cx="550" cy="525"></circle><circle r="9" cx="39" cy="176"></circle><circle r="6" cx="157" cy="484"></circle><circle r="8" cx="34" cy="628"></circle><circle r="0" cx="77" cy="224"></circle><circle r="1" cx="81" cy="440"></circle><circle r="8" cx="195" cy="725"></circle><circle r="7" cx="28" cy="886"></circle><circle r="3" cx="481" cy="657"></circle><circle r="12" cx="411" cy="897"></circle><circle r="3" cx="541" cy="116"></circle><circle r="10" cx="594" cy="125"></circle><circle r="2" cx="162" cy="540"></circle><circle r="8" cx="394" cy="819"></circle><circle r="2" cx="323" cy="2"></circle><circle r="5" cx="387" cy="182"></circle><circle r="4" cx="457" cy="55"></circle><circle r="2" cx="2" cy="827"></circle><circle r="7" cx="208" cy="435"></circle><circle r="7" cx="569" cy="592"></circle><circle r="7" cx="52" cy="352"></circle><circle r="1" cx="40" cy="716"></circle><circle r="5" cx="512" cy="413"></circle><circle r="2" cx="450" cy="468"></circle><circle r="5" cx="523" cy="151"></circle><circle r="9" cx="466" cy="539"></circle><circle r="8" cx="296" cy="324"></circle><circle r="10" cx="383" cy="515"></circle><circle r="2" cx="218" cy="340"></circle><circle r="2" cx="248" cy="619"></circle><circle r="2" cx="442" cy="752"></circle><circle r="11" cx="374" cy="106"></circle><circle r="8" cx="147" cy="209"></circle><circle r="3" cx="521" cy="245"></circle><circle r="11" cx="440" cy="292"></circle><circle r="1" cx="200" cy="819"></circle><circle r="2" cx="362" cy="742"></circle><circle r="10" cx="132" cy="658"></circle><circle r="7" cx="431" cy="176"></circle><circle r="8" cx="527" cy="573"></circle><circle r="11" cx="88" cy="122"></circle><circle r="6" cx="350" cy="11"></circle><circle r="6" cx="296" cy="757"></circle><circle r="9" cx="544" cy="332"></circle><circle r="3" cx="61" cy="123"></circle><circle r="5" cx="447" cy="106"></circle><circle r="5" cx="332" cy="505"></circle><circle r="8" cx="516" cy="481"></circle><circle r="10" cx="269" cy="641"></circle><circle r="10" cx="411" cy="604"></circle><circle r="0" cx="380" cy="707"></circle><circle r="10" cx="67" cy="866"></circle><circle r="10" cx="211" cy="665"></circle><circle r="9" cx="353" cy="620"></circle><circle r="4" cx="441" cy="215"></circle><circle r="11" cx="199" cy="176"></circle><circle r="8" cx="464" cy="814"></circle><circle r="8" cx="250" cy="55"></circle><circle r="1" cx="357" cy="60"></circle><circle r="10" cx="316" cy="735"></circle><circle r="11" cx="225" cy="863"></circle><circle r="1" cx="90" cy="749"></circle><circle r="5" cx="554" cy="93"></circle><circle r="10" cx="215" cy="776"></circle><circle r="10" cx="158" cy="756"></circle><circle r="4" cx="89" cy="548"></circle><circle r="6" cx="466" cy="782"></circle><circle r="4" cx="173" cy="808"></circle><circle r="0" cx="253" cy="507"></circle><circle r="2" cx="353" cy="340"></circle><circle r="12" cx="482" cy="867"></circle><circle r="8" cx="597" cy="437"></circle><circle r="7" cx="569" cy="881"></circle><circle r="4" cx="4" cy="120"></circle><circle r="4" cx="128" cy="148"></circle><circle r="4" cx="86" cy="28"></circle><circle r="9" cx="286" cy="552"></circle><circle r="6" cx="213" cy="286"></circle><circle r="12" cx="215" cy="602"></circle><circle r="9" cx="467" cy="591"></circle><circle r="8" cx="443" cy="899"></circle><circle r="4" cx="112" cy="816"></circle><circle r="5" cx="496" cy="770"></circle><circle r="10" cx="527" cy="837"></circle><circle r="10" cx="453" cy="385"></circle><circle r="2" cx="472" cy="492"></circle><circle r="7" cx="461" cy="624"></circle><circle r="4" cx="599" cy="520"></circle><circle r="1" cx="515" cy="612"></circle><circle r="12" cx="376" cy="765"></circle><circle r="4" cx="47" cy="37"></circle><circle r="4" cx="474" cy="287"></circle><circle r="4" cx="598" cy="353"></circle><circle r="2" cx="39" cy="792"></circle><circle r="4" cx="164" cy="862"></circle><circle r="9" cx="281" cy="873"></circle><circle r="4" cx="132" cy="389"></circle></g></svg>