<svg id="visual" viewBox="0 0 900 675" width="900" height="675" xmlns="http://www.w3.org/2000/svg" xmlns:xlink="http://www.w3.org/1999/xlink" version="1.1"><rect x="0" y="0" width="900" height="675" fill="#FFFFFF"></rect><g fill="#000000"><circle r="14" cx="427" cy="549"></circle><circle r="1" cx="463" cy="545"></circle><circle r="10" cx="837" cy="184"></circle><circle r="9" cx="366" cy="259"></circle><circle r="1" cx="539" cy="49"></circle><circle r="9" cx="172" cy="508"></circle><circle r="3" cx="286" cy="213"></circle><circle r="4" cx="406" cy="587"></circle><circle r="4" cx="514" cy="74"></circle><circle r="9" cx="509" cy="623"></circle><circle r="10" cx="705" cy="569"></circle><circle r="5" cx="890" cy="572"></circle><circle r="1" cx="603" cy="533"></circle><circle r="2" cx="896" cy="215"></circle><circle r="9" cx="793" cy="409"></circle><circle r="1" cx="571" cy="86"></circle><circle r="0" cx="308" cy="49"></circle><circle r="12" cx="679" cy="432"></circle><circle r="6" cx="266" cy="136"></circle><circle r="12" cx="379" cy="305"></circle><circle r="4" cx="696" cy="469"></circle><circle r="0" cx="525" cy="140"></circle><circle r="2" cx="857" cy="38"></circle><circle r="6" cx="61" cy="512"></circle><circle r="12" cx="735" cy="224"></circle><circle r="3" cx="465" cy="315"></circle><circle r="6" cx="702" cy="322"></circle><circle r="5" cx="278" cy="439"></circle><circle r="5" cx="37" cy="442"></circle><circle r="11" cx="571" cy="465"></circle><circle r="3" cx="588" cy="149"></circle><circle r="11" cx="20" cy="253"></circle><circle r="3" cx="64" cy="41"></circle><circle r="3" cx="564" cy="649"></circle><circle r="1" cx="269" cy="67"></circle><circle r="10" cx="752" cy="27"></circle><circle r="7" cx="339" cy="374"></circle><circle r="6" cx="856" cy="481"></circle><circle r="7" cx="171" cy="447"></circle><circle r="10" cx="93" cy="457"></circle><circle r="11" cx="368" cy="627"></circle><circle r="4" cx="112" cy="342"></circle><circle r="1" cx="86" cy="137"></circle><circle r="6" cx="761" cy="99"></circle><circle r="0" cx="599" cy="351"></circle><circle r="5" cx="15" cy="464"></circle><circle r="2" cx="529" cy="502"></circle><circle r="4" cx="7" cy="114"></circle><circle r="10" cx="382" cy="408"></circle><circle r="5" cx="361" cy="207"></circle><circle r="4" cx="659" cy="92"></circle><circle r="1" cx="166" cy="568"></circle><circle r="7" cx="205" cy="584"></circle><circle r="7" cx="43" cy="670"></circle><circle r="5" cx="474" cy="4"></circle><circle r="4" cx="268" cy="275"></circle><circle r="5" cx="194" cy="234"></circle><circle r="12" cx="595" cy="592"></circle><circle r="5" cx="619" cy="161"></circle><circle r="3" cx="310" cy="186"></circle><circle r="11" cx="108" cy="177"></circle><circle r="5" cx="2" cy="571"></circle><circle r="10" cx="857" cy="117"></circle><circle r="0" cx="29" cy="159"></circle><circle r="9" cx="58" cy="86"></circle><circle r="6" cx="862" cy="554"></circle><circle r="1" cx="441" cy="454"></circle><circle r="1" cx="710" cy="353"></circle><circle r="8" cx="178" cy="386"></circle><circle r="10" cx="290" cy="325"></circle><circle r="10" cx="36" cy="331"></circle><circle r="10" cx="159" cy="76"></circle><circle r="8" cx="222" cy="492"></circle><circle r="0" cx="151" cy="319"></circle><circle r="12" cx="745" cy="429"></circle><circle r="4" cx="23" cy="387"></circle><circle r="10" cx="786" cy="598"></circle><circle r="10" cx="603" cy="257"></circle><circle r="2" cx="699" cy="35"></circle><circle r="1" cx="112" cy="393"></circle><circle r="4" cx="408" cy="273"></circle><circle r="11" cx="179" cy="285"></circle><circle r="5" cx="314" cy="407"></circle><circle r="12" cx="476" cy="441"></circle><circle r="3" cx="338" cy="632"></circle><circle r="5" cx="442" cy="422"></circle><circle r="11" cx="811" cy="470"></circle><circle r="5" cx="895" cy="176"></circle><circle r="4" cx="100" cy="311"></circle><circle r="4" cx="524" cy="448"></circle><circle r="5" cx="474" cy="384"></circle><circle r="11" cx="420" cy="323"></circle><circle r="6" cx="594" cy="291"></circle><circle r="1" cx="5" cy="323"></circle><circle r="4" cx="340" cy="557"></circle><circle r="11" cx="315" cy="129"></circle><circle r="0" cx="385" cy="238"></circle><circle r="1" cx="565" cy="333"></circle><circle r="0" cx="382" cy="661"></circle><circle r="4" cx="678" cy="616"></circle><circle r="10" cx="772" cy="664"></circle><circle r="1" cx="832" cy="105"></circle><circle r="3" cx="548" cy="188"></circle><circle r="12" cx="112" cy="124"></circle><circle r="11" cx="273" cy="605"></circle><circle r="12" cx="253" cy="171"></circle><circle r="12" cx="599" cy="224"></circle><circle r="1" cx="168" cy="598"></circle><circle r="7" cx="59" cy="472"></circle><circle r="9" cx="710" cy="67"></circle><circle r="0" cx="326" cy="350"></circle><circle r="11" cx="207" cy="180"></circle><circle r="5" cx="155" cy="2"></circle><circle r="1" cx="615" cy="75"></circle><circle r="4" cx="242" cy="589"></circle><circle r="11" cx="352" cy="321"></circle><circle r="1" cx="75" cy="9"></circle><circle r="9" cx="446" cy="250"></circle><circle r="10" cx="668" cy="176"></circle><circle r="9" cx="628" cy="466"></circle><circle r="0" cx="629" cy="22"></circle><circle r="7" cx="739" cy="346"></circle><circle r="10" cx="368" cy="76"></circle><circle r="10" cx="495" cy="492"></circle><circle r="6" cx="201" cy="647"></circle><circle r="11" cx="657" cy="215"></circle><circle r="12" cx="405" cy="73"></circle><circle r="5" cx="878" cy="238"></circle><circle r="4" cx="155" cy="42"></circle><circle r="10" cx="452" cy="499"></circle><circle r="11" cx="140" cy="494"></circle><circle r="10" cx="272" cy="245"></circle><circle r="1" cx="669" cy="15"></circle><circle r="6" cx="125" cy="617"></circle><circle r="11" cx="892" cy="137"></circle><circle r="2" cx="24" cy="50"></circle><circle r="7" cx="252" cy="515"></circle><circle r="1" cx="738" cy="264"></circle><circle r="1" cx="266" cy="639"></circle><circle r="12" cx="539" cy="397"></circle><circle r="3" cx="106" cy="218"></circle><circle r="12" cx="680" cy="512"></circle><circle r="6" cx="311" cy="304"></circle><circle r="10" cx="486" cy="271"></circle><circle r="10" cx="401" cy="457"></circle><circle r="3" cx="352" cy="11"></circle><circle r="10" cx="691" cy="132"></circle><circle r="5" cx="848" cy="287"></circle><circle r="1" cx="740" cy="180"></circle><circle r="12" cx="109" cy="543"></circle><circle r="9" cx="487" cy="579"></circle><circle r="1" cx="419" cy="143"></circle><circle r="4" cx="683" cy="669"></circle><circle r="11" cx="4" cy="611"></circle><circle r="12" cx="214" cy="383"></circle><circle r="3" cx="662" cy="474"></circle><circle r="10" cx="650" cy="381"></circle><circle r="5" cx="550" cy="436"></circle><circle r="9" cx="487" cy="216"></circle><circle r="8" cx="408" cy="622"></circle><circle r="7" cx="871" cy="76"></circle><circle r="3" cx="127" cy="283"></circle><circle r="7" cx="46" cy="637"></circle><circle r="2" cx="569" cy="547"></circle><circle r="2" cx="131" cy="92"></circle><circle r="8" cx="448" cy="61"></circle><circle r="3" cx="216" cy="617"></circle><circle r="10" cx="133" cy="454"></circle><circle r="0" cx="888" cy="368"></circle><circle r="8" cx="342" cy="177"></circle><circle r="5" cx="492" cy="148"></circle><circle r="5" cx="851" cy="609"></circle><circle r="7" cx="892" cy="33"></circle><circle r="11" cx="218" cy="76"></circle><circle r="3" cx="281" cy="387"></circle><circle r="3" cx="623" cy="295"></circle><circle r="10" cx="404" cy="175"></circle><circle r="0" cx="532" cy="596"></circle><circle r="4" cx="92" cy="497"></circle><circle r="1" cx="770" cy="568"></circle><circle r="8" cx="451" cy="141"></circle><circle r="4" cx="59" cy="210"></circle><circle r="10" cx="669" cy="562"></circle><circle r="11" cx="691" cy="283"></circle><circle r="3" cx="889" cy="471"></circle><circle r="2" cx="574" cy="52"></circle><circle r="7" cx="340" cy="61"></circle><circle r="10" cx="741" cy="64"></circle><circle r="8" cx="817" cy="436"></circle><circle r="3" cx="711" cy="420"></circle><circle r="12" cx="60" cy="253"></circle><circle r="4" cx="797" cy="495"></circle><circle r="4" cx="640" cy="544"></circle><circle r="3" cx="351" cy="441"></circle><circle r="12" cx="155" cy="243"></circle><circle r="4" cx="872" cy="636"></circle><circle r="0" cx="23" cy="189"></circle><circle r="5" cx="388" cy="529"></circle><circle r="9" cx="817" cy="239"></circle><circle r="3" cx="748" cy="639"></circle><circle r="11" cx="349" cy="111"></circle><circle r="3" cx="714" cy="669"></circle><circle r="3" cx="255" cy="25"></circle><circle r="10" cx="226" cy="339"></circle><circle r="12" cx="590" cy="29"></circle><circle r="5" cx="786" cy="123"></circle><circle r="8" cx="546" cy="243"></circle><circle r="6" cx="277" cy="528"></circle><circle r="3" cx="577" cy="194"></circle><circle r="12" cx="155" cy="672"></circle><circle r="11" cx="554" cy="617"></circle><circle r="2" cx="751" cy="499"></circle><circle r="6" cx="697" cy="5"></circle><circle r="8" cx="731" cy="600"></circle><circle r="8" cx="834" cy="375"></circle><circle r="9" cx="697" cy="101"></circle><circle r="2" cx="323" cy="468"></circle><circle r="2" cx="402" cy="20"></circle><circle r="6" cx="290" cy="479"></circle><circle r="9" cx="449" cy="619"></circle><circle r="4" cx="64" cy="609"></circle><circle r="7" cx="464" cy="647"></circle><circle r="11" cx="439" cy="390"></circle><circle r="11" cx="165" cy="165"></circle><circle r="8" cx="76" cy="657"></circle><circle r="10" cx="824" cy="12"></circle><circle r="3" cx="378" cy="154"></circle><circle r="4" cx="170" cy="130"></circle><circle r="0" cx="297" cy="265"></circle><circle r="8" cx="226" cy="213"></circle><circle r="0" cx="580" cy="626"></circle><circle r="5" cx="447" cy="22"></circle><circle r="12" cx="307" cy="532"></circle><circle r="8" cx="508" cy="371"></circle><circle r="2" cx="394" cy="487"></circle><circle r="1" cx="782" cy="15"></circle><circle r="9" cx="511" cy="254"></circle><circle r="1" cx="152" cy="625"></circle><circle r="9" cx="848" cy="157"></circle><circle r="4" cx="464" cy="102"></circle><circle r="12" cx="633" cy="330"></circle><circle r="1" cx="341" cy="529"></circle><circle r="1" cx="344" cy="281"></circle><circle r="4" cx="836" cy="528"></circle><circle r="5" cx="604" cy="185"></circle><circle r="7" cx="888" cy="536"></circle><circle r="9" cx="520" cy="294"></circle><circle r="8" cx="786" cy="441"></circle><circle r="0" cx="14" cy="637"></circle><circle r="10" cx="60" cy="303"></circle><circle r="7" cx="106" cy="45"></circle><circle r="2" cx="574" cy="269"></circle><circle r="9" cx="767" cy="287"></circle><circle r="12" cx="894" cy="396"></circle><circle r="0" cx="573" cy="371"></circle><circle r="0" cx="100" cy="91"></circle><circle r="11" cx="771" cy="188"></circle><circle r="7" cx="227" cy="672"></circle><circle r="1" cx="13" cy="23"></circle><circle r="4" cx="733" cy="566"></circle><circle r="4" cx="143" cy="379"></circle><circle r="9" cx="797" cy="326"></circle><circle r="4" cx="291" cy="160"></circle><circle r="1" cx="120" cy="583"></circle><circle r="10" cx="307" cy="571"></circle><circle r="2" cx="320" cy="6"></circle><circle r="8" cx="204" cy="33"></circle><circle r="1" cx="657" cy="275"></circle><circle r="10" cx="659" cy="54"></circle><circle r="6" cx="460" cy="285"></circle><circle r="1" cx="780" cy="218"></circle><circle r="3" cx="427" cy="218"></circle><circle r="9" cx="255" cy="212"></circle><circle r="3" cx="83" cy="372"></circle><circle r="1" cx="626" cy="398"></circle><circle r="5" cx="511" cy="197"></circle><circle r="5" cx="404" cy="203"></circle><circle r="1" cx="58" cy="420"></circle><circle r="1" cx="375" cy="592"></circle><circle r="11" cx="806" cy="366"></circle><circle r="8" cx="308" cy="96"></circle><circle r="0" cx="52" cy="140"></circle><circle r="1" cx="188" cy="318"></circle><circle r="9" cx="599" cy="461"></circle><circle r="5" cx="332" cy="33"></circle><circle r="7" cx="330" cy="254"></circle><circle r="0" cx="219" cy="445"></circle><circle r="10" cx="49" cy="570"></circle><circle r="5" cx="401" cy="349"></circle><circle r="1" cx="31" cy="217"></circle><circle r="7" cx="602" cy="422"></circle><circle r="11" cx="173" cy="649"></circle><circle r="4" cx="120" cy="4"></circle><circle r="1" cx="418" cy="661"></circle><circle r="10" cx="812" cy="133"></circle><circle r="9" cx="646" cy="245"></circle><circle r="6" cx="827" cy="57"></circle><circle r="9" cx="260" cy="331"></circle><circle r="12" cx="4" cy="530"></circle><circle r="7" cx="382" cy="118"></circle><circle r="2" cx="766" cy="158"></circle><circle r="5" cx="474" cy="72"></circle><circle r="9" cx="256" cy="479"></circle><circle r="2" cx="822" cy="641"></circle><circle r="6" cx="647" cy="608"></circle><circle r="5" cx="646" cy="139"></circle><circle r="6" cx="187" cy="352"></circle><circle r="7" cx="557" cy="575"></circle><circle r="12" cx="331" cy="212"></circle><circle r="8" cx="719" cy="199"></circle><circle r="7" cx="406" cy="429"></circle><circle r="3" cx="810" cy="616"></circle><circle r="5" cx="787" cy="63"></circle><circle r="1" cx="240" cy="240"></circle><circle r="8" cx="147" cy="534"></circle><circle r="7" cx="607" cy="111"></circle><circle r="7" cx="763" cy="361"></circle><circle r="2" cx="364" cy="503"></circle><circle r="5" cx="725" cy="140"></circle><circle r="5" cx="199" cy="555"></circle><circle r="11" cx="850" cy="333"></circle><circle r="3" cx="741" cy="401"></circle><circle r="10" cx="714" cy="537"></circle><circle r="6" cx="677" cy="251"></circle><circle r="12" cx="194" cy="111"></circle><circle r="8" cx="136" cy="189"></circle><circle r="7" cx="775" cy="247"></circle><circle r="12" cx="847" cy="255"></circle><circle r="6" cx="633" cy="433"></circle><circle r="3" cx="476" cy="43"></circle><circle r="10" cx="132" cy="159"></circle><circle r="1" cx="747" cy="460"></circle><circle r="7" cx="878" cy="6"></circle><circle r="7" cx="486" cy="351"></circle><circle r="7" cx="512" cy="531"></circle><circle r="8" cx="2" cy="501"></circle><circle r="6" cx="313" cy="435"></circle><circle r="8" cx="126" cy="248"></circle><circle r="3" cx="730" cy="3"></circle><circle r="5" cx="567" cy="517"></circle><circle r="2" cx="344" cy="408"></circle><circle r="5" cx="683" cy="363"></circle><circle r="11" cx="242" cy="117"></circle><circle r="11" cx="536" cy="4"></circle><circle r="12" cx="299" cy="673"></circle><circle r="12" cx="269" cy="673"></circle><circle r="4" cx="520" cy="169"></circle><circle r="4" cx="890" cy="289"></circle><circle r="0" cx="237" cy="49"></circle><circle r="0" cx="737" cy="307"></circle><circle r="0" cx="6" cy="421"></circle><circle r="11" cx="33" cy="531"></circle><circle r="4" cx="332" cy="674"></circle><circle r="6" cx="461" cy="188"></circle><circle r="4" cx="668" cy="332"></circle><circle r="9" cx="14" cy="354"></circle><circle r="0" cx="239" cy="398"></circle><circle r="10" cx="593" cy="671"></circle><circle r="10" cx="222" cy="288"></circle><circle r="5" cx="503" cy="6"></circle><circle r="6" cx="859" cy="427"></circle><circle r="3" cx="82" cy="533"></circle><circle r="11" cx="799" cy="282"></circle><circle r="5" cx="36" cy="112"></circle><circle r="7" cx="222" cy="148"></circle><circle r="2" cx="419" cy="523"></circle><circle r="4" cx="333" cy="588"></circle><circle r="1" cx="688" cy="214"></circle><circle r="11" cx="804" cy="189"></circle><circle r="5" cx="251" cy="558"></circle><circle r="12" cx="35" cy="488"></circle><circle r="9" cx="544" cy="95"></circle><circle r="3" cx="52" cy="390"></circle><circle r="7" cx="36" cy="286"></circle><circle r="2" cx="520" cy="332"></circle><circle r="10" cx="87" cy="588"></circle><circle r="4" cx="98" cy="630"></circle><circle r="7" cx="868" cy="310"></circle><circle r="7" cx="780" cy="631"></circle><circle r="7" cx="557" cy="153"></circle><circle r="6" cx="422" cy="115"></circle><circle r="6" cx="515" cy="108"></circle><circle r="1" cx="112" cy="657"></circle><circle r="3" cx="893" cy="427"></circle><circle r="3" cx="851" cy="656"></circle><circle r="6" cx="28" cy="85"></circle><circle r="4" cx="80" cy="184"></circle><circle r="7" cx="7" cy="671"></circle><circle r="3" cx="770" cy="533"></circle><circle r="1" cx="549" cy="285"></circle><circle r="1" cx="531" cy="553"></circle><circle r="0" cx="282" cy="353"></circle><circle r="11" cx="197" cy="409"></circle><circle r="3" cx="703" cy="165"></circle><circle r="10" cx="646" cy="648"></circle><circle r="12" cx="304" cy="610"></circle><circle r="8" cx="93" cy="422"></circle><circle r="9" cx="545" cy="476"></circle><circle r="11" cx="159" cy="354"></circle><circle r="11" cx="497" cy="665"></circle><circle r="10" cx="495" cy="404"></circle><circle r="2" cx="767" cy="318"></circle><circle r="6" cx="687" cy="394"></circle><circle r="5" cx="615" cy="503"></circle><circle r="7" cx="624" cy="370"></circle><circle r="10" cx="442" cy="356"></circle><circle r="8" cx="861" cy="211"></circle><circle r="8" cx="237" cy="2"></circle><circle r="4" cx="896" cy="92"></circle><circle r="2" cx="870" cy="511"></circle><circle r="9" cx="198" cy="464"></circle><circle r="12" cx="140" cy="126"></circle><circle r="4" cx="839" cy="454"></circle><circle r="6" cx="126" cy="425"></circle><circle r="2" cx="824" cy="303"></circle><circle r="9" cx="175" cy="540"></circle><circle r="7" cx="596" cy="391"></circle><circle r="9" cx="99" cy="270"></circle><circle r="2" cx="190" cy="6"></circle><circle r="4" cx="171" cy="214"></circle><circle r="10" cx="772" cy="388"></circle><circle r="2" cx="806" cy="85"></circle><circle r="5" cx="280" cy="12"></circle><circle r="1" cx="505" cy="36"></circle><circle r="1" cx="828" cy="585"></circle><circle r="8" cx="598" cy="319"></circle><circle r="4" cx="202" cy="263"></circle><circle r="9" cx="437" cy="575"></circle><circle r="3" cx="258" cy="419"></circle><circle r="2" cx="370" cy="377"></circle><circle r="9" cx="897" cy="338"></circle><circle r="2" cx="537" cy="356"></circle><circle r="2" cx="682" cy="73"></circle><circle r="10" cx="410" cy="397"></circle><circle r="8" cx="493" cy="464"></circle><circle r="5" cx="481" cy="520"></circle><circle r="4" cx="128" cy="65"></circle><circle r="1" cx="801" cy="569"></circle><circle r="6" cx="64" cy="348"></circle><circle r="7" cx="573" cy="415"></circle><circle r="7" cx="338" cy="149"></circle><circle r="12" cx="709" cy="508"></circle><circle r="11" cx="711" cy="636"></circle><circle r="9" cx="495" cy="311"></circle><circle r="2" cx="358" cy="471"></circle><circle r="4" cx="625" cy="584"></circle><circle r="5" cx="778" cy="469"></circle><circle r="2" cx="858" cy="396"></circle><circle r="2" cx="892" cy="616"></circle><circle r="9" cx="732" cy="111"></circle><circle r="11" cx="253" cy="366"></circle><circle r="2" cx="802" cy="541"></circle><circle r="12" cx="275" cy="98"></circle><circle r="4" cx="365" cy="44"></circle><circle r="10" cx="236" cy="642"></circle><circle r="1" cx="753" cy="133"></circle><circle r="3" cx="609" cy="621"></circle><circle r="5" cx="279" cy="565"></circle><circle r="3" cx="313" cy="647"></circle><circle r="3" cx="525" cy="648"></circle><circle r="6" cx="469" cy="413"></circle><circle r="9" cx="646" cy="510"></circle><circle r="7" cx="716" cy="387"></circle><circle r="5" cx="573" cy="4"></circle><circle r="10" cx="365" cy="348"></circle><circle r="3" cx="859" cy="362"></circle><circle r="1" cx="383" cy="557"></circle><circle r="0" cx="33" cy="607"></circle><circle r="0" cx="182" cy="58"></circle><circle r="11" cx="53" cy="173"></circle><circle r="8" cx="742" cy="529"></circle><circle r="3" cx="4" cy="284"></circle><circle r="11" cx="826" cy="496"></circle><circle r="3" cx="450" cy="671"></circle><circle r="11" cx="520" cy="419"></circle><circle r="2" cx="67" cy="115"></circle><circle r="10" cx="654" cy="307"></circle><circle r="1" cx="710" cy="257"></circle><circle r="3" cx="760" cy="609"></circle><circle r="5" cx="1" cy="163"></circle><circle r="12" cx="515" cy="226"></circle><circle r="10" cx="560" cy="120"></circle><circle r="1" cx="320" cy="501"></circle><circle r="1" cx="41" cy="12"></circle><circle r="5" cx="169" cy="480"></circle><circle r="11" cx="865" cy="181"></circle><circle r="6" cx="250" cy="449"></circle><circle r="7" cx="820" cy="161"></circle><circle r="9" cx="547" cy="673"></circle><circle r="12" cx="893" cy="671"></circle><circle r="12" cx="567" cy="223"></circle><circle r="2" cx="156" cy="405"></circle><circle r="8" cx="827" cy="405"></circle><circle r="0" cx="432" cy="185"></circle><circle r="1" cx="311" cy="232"></circle><circle r="3" cx="896" cy="262"></circle><circle r="9" cx="228" cy="534"></circle><circle r="11" cx="898" cy="509"></circle><circle r="8" cx="427" cy="294"></circle><circle r="0" cx="117" cy="512"></circle><circle r="9" cx="638" cy="186"></circle><circle r="2" cx="459" cy="223"></circle><circle r="5" cx="587" cy="497"></circle><circle r="1" cx="257" cy="303"></circle><circle r="0" cx="425" cy="483"></circle><circle r="9" cx="610" cy="1"></circle><circle r="5" cx="310" cy="375"></circle><circle r="6" cx="825" cy="209"></circle><circle r="10" cx="1" cy="230"></circle><circle r="6" cx="423" cy="38"></circle><circle r="0" cx="623" cy="672"></circle><circle r="11" cx="480" cy="624"></circle><circle r="5" cx="138" cy="219"></circle><circle r="6" cx="117" cy="478"></circle><circle r="8" cx="721" cy="446"></circle><circle r="0" cx="806" cy="671"></circle><circle r="4" cx="652" cy="413"></circle><circle r="1" cx="352" cy="234"></circle><circle r="4" cx="631" cy="98"></circle><circle r="6" cx="727" cy="483"></circle><circle r="10" cx="544" cy="314"></circle><circle r="8" cx="248" cy="90"></circle><circle r="2" cx="378" cy="184"></circle><circle r="11" cx="193" cy="153"></circle><circle r="9" cx="461" cy="592"></circle><circle r="6" cx="133" cy="558"></circle><circle r="4" cx="490" cy="177"></circle><circle r="5" cx="823" cy="337"></circle><circle r="0" cx="703" cy="599"></circle><circle r="10" cx="77" cy="560"></circle><circle r="11" cx="487" cy="118"></circle><circle r="8" cx="84" cy="69"></circle><circle r="11" cx="834" cy="556"></circle><circle r="10" cx="607" cy="562"></circle><circle r="1" cx="801" cy="38"></circle><circle r="2" cx="628" cy="221"></circle><circle r="7" cx="200" cy="510"></circle><circle r="2" cx="745" cy="674"></circle><circle r="2" cx="91" cy="242"></circle><circle r="6" cx="465" cy="473"></circle><circle r="5" cx="280" cy="41"></circle></g></svg>