<svg id="visual" viewBox="0 0 900 600" width="900" height="600" xmlns="http://www.w3.org/2000/svg" xmlns:xlink="http://www.w3.org/1999/xlink" version="1.1"><rect x="0" y="0" width="900" height="600" fill="#000000"></rect><g fill="#FFFFFF"><circle r="46" cx="423" cy="518"></circle><circle r="21" cx="674" cy="5"></circle><circle r="37" cx="146" cy="549"></circle><circle r="31" cx="287" cy="17"></circle><circle r="20" cx="481" cy="435"></circle><circle r="43" cx="723" cy="527"></circle><circle r="26" cx="662" cy="223"></circle><circle r="33" cx="841" cy="193"></circle><circle r="34" cx="898" cy="508"></circle><circle r="34" cx="280" cy="443"></circle><circle r="25" cx="858" cy="384"></circle><circle r="41" cx="133" cy="259"></circle><circle r="21" cx="640" cy="98"></circle><circle r="37" cx="230" cy="266"></circle><circle r="36" cx="596" cy="331"></circle><circle r="41" cx="230" cy="139"></circle><circle r="42" cx="432" cy="218"></circle><circle r="21" cx="575" cy="178"></circle><circle r="44" cx="389" cy="421"></circle><circle r="26" cx="26" cy="246"></circle><circle r="41" cx="514" cy="97"></circle><circle r="33" cx="566" cy="507"></circle><circle r="21" cx="49" cy="474"></circle><circle r="37" cx="384" cy="90"></circle><circle r="36" cx="739" cy="310"></circle><circle r="31" cx="328" cy="592"></circle><circle r="42" cx="336" cy="308"></circle><circle r="26" cx="780" cy="439"></circle><circle r="36" cx="877" cy="45"></circle><circle r="42" cx="248" cy="546"></circle><circle r="26" cx="61" cy="35"></circle><circle r="22" cx="22" cy="581"></circle><circle r="29" cx="758" cy="101"></circle><circle r="28" cx="139" cy="113"></circle><circle r="30" cx="177" cy="461"></circle><circle r="43" cx="337" cy="199"></circle><circle r="42" cx="489" cy="2"></circle><circle r="22" cx="33" cy="153"></circle><circle r="34" cx="8" cy="390"></circle><circle r="41" cx="171" cy="25"></circle><circle r="39" cx="498" cy="588"></circle><circle r="32" cx="438" cy="314"></circle><circle r="28" cx="879" cy="280"></circle><circle r="28" cx="832" cy="574"></circle><circle r="41" cx="675" cy="419"></circle><circle r="39" cx="114" cy="356"></circle><circle r="41" cx="649" cy="581"></circle><circle r="35" cx="208" cy="359"></circle><circle r="21" cx="775" cy="3"></circle></g></svg>